<svg width="52" height="54" viewBox="0 0 52 54" fill="none" xmlns="http://www.w3.org/2000/svg">
<path d="M39.303 48.645C37.3963 49.23 35.143 49.5 32.4997 49.5H19.4997C16.8563 49.5 14.603 49.23 12.6963 48.645M39.303 48.645C38.8263 42.795 33.0413 38.1824 25.9997 38.1824C18.958 38.1824 13.173 42.795 12.6963 48.645M39.303 48.645C45.1963 46.9125 47.6663 42.255 47.6663 33.75V20.25C47.6663 9 43.333 4.5 32.4997 4.5H19.4997C8.66634 4.5 4.33301 9 4.33301 20.25V33.75C4.33301 42.255 6.80301 46.9125 12.6963 48.645M25.9997 31.8825C21.7097 31.8825 18.243 28.26 18.243 23.805C18.243 19.35 21.7097 15.75 25.9997 15.75C30.2897 15.75 33.7563 19.35 33.7563 23.805C33.7563 28.26 30.2897 31.8825 25.9997 31.8825Z" stroke="#292D32" stroke-width="1.5" stroke-linecap="round" stroke-linejoin="round"/>
</svg>
