<svg width="52" height="54" viewBox="0 0 52 54" fill="none" xmlns="http://www.w3.org/2000/svg">
<path d="M39.304 48.645C37.3973 49.23 35.144 49.5 32.5007 49.5H19.5007C16.8573 49.5 14.604 49.23 12.6973 48.645M39.304 48.645C38.8273 42.795 33.0423 38.1824 26.0007 38.1824C18.959 38.1824 13.174 42.795 12.6973 48.645M39.304 48.645C45.1973 46.9125 47.6673 42.255 47.6673 33.75V20.25C47.6673 9 43.334 4.5 32.5007 4.5H19.5007C8.66732 4.5 4.33398 9 4.33398 20.25V33.75C4.33398 42.255 6.80399 46.9125 12.6973 48.645M26.0007 31.8825C21.7107 31.8825 18.244 28.26 18.244 23.805C18.244 19.35 21.7107 15.75 26.0007 15.75C30.2907 15.75 33.7573 19.35 33.7573 23.805C33.7573 28.26 30.2907 31.8825 26.0007 31.8825Z" stroke="#292D32" stroke-width="1.5" stroke-linecap="round" stroke-linejoin="round"/>
</svg>
